<svg xmlns="http://www.w3.org/2000/svg" viewBox="0 0 512 512" fill="none">
  <defs>
    <linearGradient id="g1" x1="0" y1="0" x2="1" y2="1">
      <stop offset="0%" stop-color="#3B82F6"/>
      <stop offset="100%" stop-color="#6366F1"/>
    </linearGradient>
    <linearGradient id="g2" x1="0" y1="0" x2="1" y2="1">
      <stop offset="0%" stop-color="#6366F1"/>
      <stop offset="100%" stop-color="#8B5CF6"/>
    </linearGradient>
  </defs>
  <!-- Shield body -->
  <path d="M256 28L72 116v148c0 112 78 214 184 248 106-34 184-136 184-248V116L256 28z" fill="url(#g1)" opacity="0.15"/>
  <path d="M256 28L72 116v148c0 112 78 214 184 248 106-34 184-136 184-248V116L256 28z" fill="none" stroke="url(#g1)" stroke-width="16" stroke-linejoin="round"/>
  <!-- Wallet icon inside shield -->
  <rect x="160" y="200" width="192" height="128" rx="20" fill="url(#g1)"/>
  <rect x="160" y="200" width="192" height="40" rx="12" fill="url(#g2)"/>
  <!-- Card chip -->
  <rect x="186" y="260" width="36" height="28" rx="6" fill="#FCD34D" opacity="0.9"/>
  <line x1="186" y1="274" x2="222" y2="274" stroke="#D97706" stroke-width="2"/>
  <line x1="204" y1="260" x2="204" y2="288" stroke="#D97706" stroke-width="2"/>
  <!-- Signal / smart indicator -->
  <circle cx="316" cy="280" r="8" fill="white" opacity="0.9"/>
  <path d="M296 264a28 28 0 0 1 40 0" fill="none" stroke="white" stroke-width="4" stroke-linecap="round" opacity="0.6"/>
  <path d="M288 254a42 42 0 0 1 56 0" fill="none" stroke="white" stroke-width="4" stroke-linecap="round" opacity="0.35"/>
  <!-- Checkmark -->
  <path d="M232 170l16 16 32-32" fill="none" stroke="#22C55E" stroke-width="12" stroke-linecap="round" stroke-linejoin="round"/>
</svg>
